<?xml version="1.0" ?><svg id="Layer_1" style="enable-background:new 0 0 500 500;" version="1.1" viewBox="0 0 500 500" xml:space="preserve" xmlns="http://www.w3.org/2000/svg" xmlns:xlink="http://www.w3.org/1999/xlink"><g><g><path d="M474.967,235.703v39.771c0,33.187-21.943,66.514-65.827,91.885    c-87.909,50.742-230.399,50.742-318.17,0c-44.022-25.371-65.964-58.697-65.964-91.885v-39.771H474.967z" style="fill:#3376BF;"/></g><g><path d="M474.967,224.562v39.771c0,33.187-21.943,66.514-65.827,91.885    c-87.909,50.742-230.399,50.742-318.17,0c-44.022-25.371-65.964-58.697-65.964-91.885v-39.771H474.967z" style="fill:#419AE8;"/></g><g><g><ellipse cx="250" cy="224.489" rx="225" ry="129.904" style="fill:#69C3FA;"/></g><g><path d="M381.867,300.623c-72.826,42.046-190.903,42.045-263.731-0.002     c-72.828-42.048-72.829-110.219-0.003-152.265c72.826-42.046,190.902-42.046,263.73,0.002     C454.691,190.405,454.693,258.577,381.867,300.623z" style="fill:#419AE8;"/></g><g><path d="M374.675,296.47c-68.854,39.753-180.49,39.752-249.346-0.002     c-68.856-39.754-68.857-104.207-0.003-143.96c68.854-39.753,180.49-39.752,249.346,0.002     C443.527,192.264,443.529,256.717,374.675,296.47z" style="fill:#69C3FA;"/></g><g><g><polygon points="229.036,212.387 148.991,282.875 198.514,194.764 351.127,166.172     " style="fill:#419AE8;"/></g><g><polygon points="301.485,254.215 148.991,282.875 271.081,236.661 351.127,166.172     " style="fill:#419AE8;"/></g></g><g><g><path d="M397.762,139.13c-81.587-47.104-213.88-47.105-295.599,0.076      c-81.583,47.102-81.581,123.481,0.006,170.586c81.587,47.104,214.013,47.182,295.596,0.08      C479.484,262.691,479.349,186.235,397.762,139.13z M110.286,305.105c-77.062-44.492-77.063-116.723-0.004-161.213      c77.193-44.567,202.298-44.566,279.36-0.075c77.195,44.569,77.197,116.799,0.004,161.366      C312.588,349.674,187.481,349.674,110.286,305.105z" style="fill:#419AE8;"/></g></g></g></g></svg>